<svg id="图层_3" data-name="图层 3" xmlns="http://www.w3.org/2000/svg" viewBox="0 0 231.39 178.23"><defs><style>.cls-1{fill:#231815;}</style></defs><title>redo</title><path class="cls-1" d="M66.26,219.59A102.33,102.33,0,0,1,52,198.82c-.9-1.91-1.91-3.78-2.7-5.75L48,190.15l-1.1-3-.55-1.5-.48-1.52-1-3L44.12,178c-.28-1-.54-2.06-.74-3.11l-.66-3.13c-.19-1-.35-2.1-.52-3.16-.38-2.1-.54-4.24-.8-6.36A101.77,101.77,0,0,1,72.34,79.75,103.72,103.72,0,0,1,118.23,54a106.34,106.34,0,0,1,100.7,26.57,108.45,108.45,0,0,1,28.7,46.95,111.63,111.63,0,0,1,2.09,55.78l0,.13a16.55,16.55,0,0,1-32.34-7.08c.08-.35.18-.74.27-1.08a79.7,79.7,0,0,0-17.77-76A83.6,83.6,0,0,0,192.38,92l-2-1.65-1-.83-1.05-.77-2.11-1.55L184,85.75a82.17,82.17,0,0,0-18.94-9.15,84.5,84.5,0,0,0-81.2,15.85,86.26,86.26,0,0,0-14.93,16.24,87.33,87.33,0,0,0-15.51,41.56,90.54,90.54,0,0,0-.47,11.33c.11,1.89.11,3.79.34,5.68.09.94.17,1.89.27,2.84l.4,2.82c.12.95.29,1.88.48,2.81l.54,2.81.68,2.78L56,182.7l.41,1.37.81,2.75.95,2.71c.59,1.83,1.4,3.56,2.1,5.35a93.94,93.94,0,0,0,11.8,19.83l0,0a3.79,3.79,0,0,1-5.84,4.83Z" transform="translate(-40.99 -50.6)"/><polygon class="cls-1" points="160.53 97.07 161.66 178.23 231.39 136.68 160.53 97.07"/></svg>