<svg id="图层_4" data-name="图层 4" xmlns="http://www.w3.org/2000/svg" viewBox="0 0 231.39 178.23"><defs><style>.cls-1{fill:#231815;}</style></defs><title>undo</title><path class="cls-1" d="M211.43,214.72a93.94,93.94,0,0,0,11.8-19.83c.7-1.79,1.51-3.53,2.1-5.35l.95-2.71.81-2.75.41-1.37.34-1.39.68-2.78.54-2.81c.19-.93.36-1.87.48-2.81l.4-2.82c.11-.94.18-1.89.27-2.84.22-1.89.23-3.79.34-5.68a90.54,90.54,0,0,0-.47-11.33,87.33,87.33,0,0,0-15.51-41.56,86.26,86.26,0,0,0-14.93-16.24,84.5,84.5,0,0,0-81.2-15.85,82.17,82.17,0,0,0-18.94,9.15l-2.18,1.45-2.11,1.55-1.05.77-1,.83-2,1.65a83.61,83.61,0,0,0-7.46,7.28,79.7,79.7,0,0,0-17.77,76,16.55,16.55,0,0,1-31.8,9.23q-.15-.52-.26-1l0-.17a111.63,111.63,0,0,1,2.09-55.78,108.45,108.45,0,0,1,28.7-46.95A106.34,106.34,0,0,1,165.27,54a103.72,103.72,0,0,1,45.89,25.73,102,102,0,0,1,30.94,82.51c-.26,2.13-.42,4.26-.8,6.36-.17,1.05-.33,2.11-.52,3.16l-.66,3.13c-.2,1-.47,2.08-.74,3.11l-.82,3.09-1,3-.48,1.52-.55,1.5-1.1,3-1.25,2.93c-.79,2-1.8,3.84-2.7,5.75a102.33,102.33,0,0,1-14.29,20.77,3.79,3.79,0,0,1-5.85-4.82Z" transform="translate(-11.12 -50.6)"/><polygon class="cls-1" points="0 136.68 69.73 178.23 70.86 97.07 0 136.68"/></svg>